<?xml version="1.0" encoding="utf-8"?>
<!-- Generator: Adobe Illustrator 26.3.1, SVG Export Plug-In . SVG Version: 6.00 Build 0)  -->
<svg version="1.1" id="レイヤー_1" xmlns="http://www.w3.org/2000/svg" xmlns:xlink="http://www.w3.org/1999/xlink" x="0px"
	 y="0px" viewBox="0 0 118.8 112.7" style="enable-background:new 0 0 118.8 112.7;" xml:space="preserve">
<style type="text/css">
	.st0{fill:none;stroke:#000000;stroke-width:3.2119;stroke-miterlimit:10;}
	.st1{fill:none;stroke:#000000;stroke-width:1.8354;stroke-miterlimit:10;}
</style>
<g>
	<path class="st0" d="M47,26.1L15.4,80.8c-2,3.5,0.5,7.8,4.5,7.8"/>
	<path class="st0" d="M52.1,17.1"/>
	<path class="st0" d="M55.9,10.5"/>
	<path class="st0" d="M95.3,63.2L64.9,10.5c-2-3.5-7-3.5-9,0"/>
	<path class="st0" d="M102,74.7"/>
	<path class="st0" d="M105.5,80.8"/>
	<path class="st0" d="M40.3,88.6H101c4,0,6.5-4.3,4.5-7.8"/>
</g>
<path class="st0" d="M27.5,88.6"/>
<path class="st1" d="M19.9,88.6"/>
<g>
	<path d="M16.9,106.3V96h-3.7v-2.1h9.9V96h-3.7v10.4H16.9z"/>
	<path d="M26.7,93.9v4.6c0.8-0.9,1.7-1.4,2.8-1.4c0.6,0,1,0.1,1.5,0.3c0.4,0.2,0.8,0.5,1,0.8c0.2,0.3,0.4,0.7,0.5,1.1
		c0.1,0.4,0.1,1,0.1,1.8v5.3h-2.4v-4.8c0-0.9,0-1.5-0.1-1.8c-0.1-0.3-0.3-0.5-0.5-0.6c-0.2-0.2-0.5-0.2-0.9-0.2
		c-0.4,0-0.8,0.1-1.1,0.3c-0.3,0.2-0.5,0.5-0.7,0.9c-0.1,0.4-0.2,1-0.2,1.7v4.5h-2.4V93.9H26.7z"/>
	<path d="M36.8,106.3h-2.4v-9h2.2v1.3c0.4-0.6,0.7-1,1-1.2c0.3-0.2,0.6-0.3,1-0.3c0.5,0,1.1,0.2,1.6,0.5l-0.7,2.1
		c-0.4-0.3-0.8-0.4-1.1-0.4c-0.3,0-0.6,0.1-0.9,0.3c-0.2,0.2-0.4,0.5-0.5,1c-0.1,0.5-0.2,1.5-0.2,3V106.3z"/>
	<path d="M46.1,103.5l2.4,0.4c-0.3,0.9-0.8,1.5-1.5,2c-0.7,0.5-1.5,0.7-2.5,0.7c-1.6,0-2.7-0.5-3.5-1.5c-0.6-0.8-0.9-1.9-0.9-3.1
		c0-1.5,0.4-2.7,1.2-3.5c0.8-0.8,1.8-1.3,3-1.3c1.3,0,2.4,0.4,3.2,1.3c0.8,0.9,1.1,2.2,1.1,4.1h-6c0,0.7,0.2,1.3,0.6,1.7
		c0.4,0.4,0.8,0.6,1.4,0.6c0.4,0,0.7-0.1,0.9-0.3S46,103.9,46.1,103.5z M46.2,101c0-0.7-0.2-1.2-0.5-1.6c-0.3-0.4-0.8-0.5-1.2-0.5
		c-0.5,0-1,0.2-1.3,0.6c-0.3,0.4-0.5,0.9-0.5,1.5H46.2z"/>
	<path d="M55.4,103.5l2.4,0.4c-0.3,0.9-0.8,1.5-1.5,2c-0.7,0.5-1.5,0.7-2.5,0.7c-1.6,0-2.7-0.5-3.5-1.5c-0.6-0.8-0.9-1.9-0.9-3.1
		c0-1.5,0.4-2.7,1.2-3.5c0.8-0.8,1.8-1.3,3-1.3c1.3,0,2.4,0.4,3.2,1.3c0.8,0.9,1.1,2.2,1.1,4.1h-6c0,0.7,0.2,1.3,0.6,1.7
		c0.4,0.4,0.8,0.6,1.4,0.6c0.4,0,0.7-0.1,0.9-0.3S55.2,103.9,55.4,103.5z M55.5,101c0-0.7-0.2-1.2-0.5-1.6c-0.3-0.4-0.8-0.5-1.2-0.5
		c-0.5,0-1,0.2-1.3,0.6c-0.3,0.4-0.5,0.9-0.5,1.5H55.5z"/>
	<path d="M65.6,106.3l-3-12.5h2.6l1.9,8.6l2.3-8.6h3l2.2,8.7l1.9-8.7H79l-3,12.5h-2.7L70.8,97l-2.5,9.3H65.6z"/>
	<path d="M79,101.7c0-0.8,0.2-1.6,0.6-2.3c0.4-0.7,0.9-1.3,1.7-1.7c0.7-0.4,1.5-0.6,2.4-0.6c1.4,0,2.5,0.4,3.4,1.3
		c0.9,0.9,1.3,2,1.3,3.4c0,1.4-0.4,2.5-1.3,3.4c-0.9,0.9-2,1.3-3.3,1.3c-0.8,0-1.6-0.2-2.4-0.6c-0.8-0.4-1.3-0.9-1.7-1.6
		C79.2,103.6,79,102.7,79,101.7z M81.4,101.8c0,0.9,0.2,1.6,0.6,2.1c0.4,0.5,1,0.7,1.6,0.7c0.6,0,1.1-0.2,1.6-0.7
		c0.4-0.5,0.6-1.2,0.6-2.1c0-0.9-0.2-1.6-0.6-2c-0.4-0.5-0.9-0.7-1.6-0.7c-0.6,0-1.1,0.2-1.6,0.7C81.6,100.2,81.4,100.9,81.4,101.8z
		"/>
	<path d="M89.2,101.7c0-0.8,0.2-1.6,0.6-2.3c0.4-0.7,0.9-1.3,1.7-1.7c0.7-0.4,1.5-0.6,2.4-0.6c1.4,0,2.5,0.4,3.4,1.3
		c0.9,0.9,1.3,2,1.3,3.4c0,1.4-0.4,2.5-1.3,3.4c-0.9,0.9-2,1.3-3.3,1.3c-0.8,0-1.6-0.2-2.4-0.6c-0.8-0.4-1.3-0.9-1.7-1.6
		C89.4,103.6,89.2,102.7,89.2,101.7z M91.6,101.8c0,0.9,0.2,1.6,0.6,2.1c0.4,0.5,1,0.7,1.6,0.7c0.6,0,1.1-0.2,1.6-0.7
		c0.4-0.5,0.6-1.2,0.6-2.1c0-0.9-0.2-1.6-0.6-2C95,99.3,94.5,99,93.8,99c-0.6,0-1.1,0.2-1.6,0.7C91.8,100.2,91.6,100.9,91.6,101.8z"
		/>
	<path d="M108.2,106.3H106V105c-0.4,0.5-0.8,0.9-1.3,1.2c-0.5,0.3-1,0.4-1.5,0.4c-1,0-1.9-0.4-2.7-1.3c-0.7-0.8-1.1-2-1.1-3.5
		c0-1.5,0.4-2.7,1.1-3.5c0.7-0.8,1.6-1.2,2.7-1.2c1,0,1.9,0.4,2.6,1.3v-4.5h2.4V106.3z M101.8,101.6c0,1,0.1,1.7,0.4,2.1
		c0.4,0.6,0.9,0.9,1.6,0.9c0.6,0,1-0.2,1.4-0.7c0.4-0.5,0.6-1.2,0.6-2.1c0-1-0.2-1.8-0.6-2.2c-0.4-0.5-0.9-0.7-1.4-0.7
		c-0.6,0-1,0.2-1.4,0.7C102,100,101.8,100.7,101.8,101.6z"/>
</g>
<g>
	<polygon points="60.4,44.4 47.6,60.2 73.3,60.2 	"/>
	<polygon points="60.4,38.1 51.5,49.1 69.4,49.1 	"/>
	<polygon points="60.4,51.2 42,73.9 78.9,73.9 	"/>
</g>
</svg>
